Coordinates
version=1
nRows=19
nColumns=36
inDegrees=yes

Units are S.I. units (second, meters, Newtons, ...)
If the header above contains a line with 'inDegrees', this indicates whether rotational values are in degrees (yes) or radians (no).

endheader
time	pelvis_tilt	pelvis_list	pelvis_rotation	pelvis_tx	pelvis_ty	pelvis_tz	hip_flexion_r	hip_adduction_r	hip_rotation_r	knee_angle_r	knee_angle_r_beta	ankle_angle_r	subtalar_angle_r	mtp_angle_r	hip_flexion_l	hip_adduction_l	hip_rotation_l	knee_angle_l	knee_angle_l_beta	ankle_angle_l	subtalar_angle_l	mtp_angle_l	lumbar_extension	lumbar_bending	lumbar_rotation	arm_flex_r	arm_add_r	arm_rot_r	elbow_flex_r	pro_sup_r	arm_flex_l	arm_add_l	arm_rot_l	elbow_flex_l	pro_sup_l
      2.82500000	     -3.04488101	     -1.96696750	      0.66179830	      0.16804947	      0.77971823	     -0.04985002	     49.58265278	     -6.56318879	     -2.14933709	     70.72221912	      1.23433558	     17.13521103	    -23.86682603	     -7.49999987	     50.24988252	     -5.38868208	      2.51966491	     75.08565360	      1.31049188	     20.87866333	    -12.93554869	     -7.49999987	    -32.63111169	      2.31008658	      5.67630164	     69.80344572	    -41.44628548	      5.63772385	    113.90885764	     86.42002585	     83.51804200	    -25.20356241	     19.57970689	    102.55394376	     81.86619638
      2.82916670	     -3.21266407	     -1.90887016	      0.63849285	      0.17045705	      0.78496484	     -0.05083248	     48.73609114	     -6.54734119	     -2.19052270	     69.44767023	      1.21209050	     16.74036015	    -23.99826639	     -7.49999987	     49.39418992	     -5.23874306	      2.44154096	     73.77371128	      1.28759416	     20.60131545	    -12.58247634	     -7.49999987	    -31.55041823	      2.17887579	      5.60371982	     73.57708904	    -42.76672477	      7.61554968	    114.34487396	     85.88942845	     87.93055672	    -26.02428347	     22.71750843	    102.35263528	     81.90569431
      2.83333330	     -3.29425200	     -1.93326738	      0.70570367	      0.17341796	      0.79089017	     -0.04994376	     47.82760545	     -6.54357390	     -2.28723457	     68.14591181	      1.18937053	     16.37900346	    -23.81767564	     -7.49999987	     48.53425774	     -5.21458325	      2.37617782	     72.50778400	      1.26549956	     20.16792138	    -12.77680139	     -7.49999987	    -30.53228044	      2.14499803	      5.33999580	     76.78304608	    -43.74797801	      9.28976499	    114.72471065	     86.47222631	     91.32430716	    -27.17746938	     24.68676497	    102.51397373	     83.38212953
      2.83750000	     -3.24016581	     -1.97871593	      0.79329726	      0.17589811	      0.79965744	     -0.04886921	     46.56090512	     -6.38434548	     -2.41521649	     66.43818554	      1.15956509	     15.74218107	    -23.86866123	     -7.49999987	     47.42628056	     -5.22540997	      2.28189816	     71.02071020	      1.23954523	     19.50012888	    -12.85523249	     -7.49999987	    -29.71094117	      2.00004979	      5.08577493	     78.92330388	    -44.61599658	     10.20667895	    115.69650732	     86.66562349	     94.47220989	    -27.90552439	     26.17108845	    102.69676937	     83.87537327
      2.84166670	     -3.01080154	     -2.02996216	      0.76584925	      0.17648025	      0.80310123	     -0.04999746	     45.45707259	     -6.28756624	     -2.53990464	     65.13956246	      1.13689984	     15.13996729	    -23.83132470	     -7.49999987	     46.37659559	     -5.28728771	      2.20442333	     69.80600095	      1.21834455	     19.09298727	    -12.53053707	     -7.49999987	    -29.00310165	      1.80969913	      4.86408212	     83.29786791	    -45.36513114	     12.54425170	    114.76740115	     86.52747357	     97.97102342	    -28.29303088	     27.86361037	    102.20689610	     84.41429296
      2.84583330	     -2.74517324	     -2.09851548	      0.69638237	      0.17828532	      0.81108698	     -0.04984836	     44.28282491	     -6.16261641	     -2.72194585	     63.70195062	      1.11180878	     14.27010427	    -23.81615868	     -7.49999987	     45.21323664	     -5.41650755	      2.02896313	     68.44110709	      1.19452266	     18.46354887	    -12.38454580	     -7.49999987	    -28.48163435	      1.95261689	      4.13865651	     88.46408768	    -44.26404883	     15.60458822	    113.48046909	     87.19328665	    101.56694617	    -29.54546904	     29.51451599	    101.99521374	     86.32843893
      2.85000000	     -2.70683046	     -2.11849421	      0.61831024	      0.17701093	      0.81919831	     -0.04920448	     43.42567959	     -6.07826068	     -2.96795960	     62.28952009	      1.08715722	     13.09405465	    -24.26914815	     -7.49999987	     44.22947170	     -5.53072552	      1.90436395	     66.78638849	      1.16564237	     17.72775470	    -12.23892942	     -7.49999987	    -28.10348535	      1.75504031	      4.11260809	     93.49175795	    -44.61357246	     18.05750487	    112.48115499	     87.52572520	    105.86358743	    -29.75346221	     31.68343622	    101.04348353	     86.98419212
      2.85416670	     -2.88731576	     -2.18318742	      0.64399585	      0.18159565	      0.82525775	     -0.05111893	     42.54534364	     -6.15580030	     -3.47082327	     60.59837046	      1.05764109	     11.90392302	    -24.68907187	     -7.49999987	     43.40770961	     -5.54641270	      1.84061835	     65.34245538	      1.14044099	     17.04086330	    -12.04980591	     -7.49999987	    -27.47575832	      1.71336250	      3.85745398	     97.09469658	    -45.38487564	     19.88281000	    112.49340812	     87.80619327	    109.77553649	    -30.24097451	     33.70143657	    101.24547522	     87.53937760
      2.85833330	     -3.22759457	     -2.15219368	      0.72344051	      0.18519893	      0.83134321	     -0.05006164	     41.54104492	     -6.20654844	     -4.01039797	     58.70455125	      1.02458771	     11.00564138	    -24.72276180	     -7.49999987	     42.63235508	     -5.55666945	      1.75382343	     63.66503340	      1.11116445	     16.34390326	    -11.46548391	     -7.49999987	    -26.62861022	      1.63060145	      3.77803836	    101.48986791	    -46.25299638	     21.82292338	    112.18549633	     87.37836086	    113.17773633	    -30.73816669	     35.21424261	    101.78333526	     87.52799044
      2.86250000	     -3.63688179	     -2.15211339	      0.63694934	      0.18750297	      0.83719995	     -0.04836139	     40.80225561	     -6.11813060	     -4.41433065	     56.96976410	      0.99430996	     10.14703945	    -24.60492253	     -7.49999987	     41.96721748	     -5.72988950	      1.61667199	     62.06107641	      1.08317012	     15.75712471	    -10.91726050	     -7.49999987	    -25.83235718	      1.59391787	      3.71333072	    106.58990122	    -46.69385168	     24.33295961	    111.36463638	     87.89032215	    117.07193092	    -31.85801864	     37.06268544	    102.38319419	     88.57141406
      2.86666670	     -4.09854586	     -2.10259149	      0.62432568	      0.19185277	      0.84442408	     -0.04953956	     40.07692483	     -6.22106516	     -4.88459226	     55.24817797	      0.96426261	      9.02591293	    -24.45620315	     -7.49999987	     41.21291470	     -5.80106401	      1.40238107	     60.32167410	      1.05281182	     15.07722481	    -10.48429231	     -7.49999987	    -24.90247940	      1.71547648	      3.52205144	    110.91821851	    -46.93889848	     26.98184754	    110.87507865	     88.41048229	    120.72545306	    -33.08779327	     38.79872300	    103.11474505	     89.55527993
      2.87083330	     -4.33234079	     -2.09914755	      0.62835122	      0.19651311	      0.85112999	     -0.05121198	     38.89206259	     -6.31051807	     -5.43745654	     53.17039445	      0.92799845	      7.87778134	    -24.31812390	     -7.49999987	     40.08632221	     -5.90905028	      0.94665757	     58.42846580	      1.01976911	     14.23391201	     -9.95349659	     -7.49999987	    -23.89747001	      1.81994622	      3.30227506	    115.19868583	    -46.82701973	     29.49523190	    109.61920108	     88.91966719	    123.92953616	    -33.56843731	     40.47483609	    102.82693714	     90.27047019
      2.87500000	     -4.58298612	     -2.07706844	      0.77579408	      0.19912002	      0.86062721	     -0.04984074	     37.68360266	     -6.49881386	     -6.13073423	     51.00535583	      0.89021140	      6.75220646	    -23.56531730	     -7.49999987	     38.98164643	     -5.96793153	      0.60806493	     56.42212140	      0.98475179	     13.32961936	     -9.63476238	     -7.49999987	    -22.98680838	      2.22251779	      2.82871552	    119.84114063	    -45.50538246	     32.76214524	    108.22113530	     89.06927259	    127.04129419	    -35.06126756	     42.53127955	    103.08837356	     90.55033009
      2.87916670	     -4.81492098	     -2.08980560	      0.85849494	      0.20125949	      0.86893550	     -0.04923893	     36.41657573	     -6.55212684	     -6.77496319	     48.68072773	      0.84963898	      5.57925818	    -22.74447726	     -7.49999987	     37.74025025	     -6.10398593	      0.23331129	     54.18377258	      0.94568523	     12.34929854	     -9.11943339	     -7.49999987	    -22.16259017	      2.21192899	      2.52089864	    123.49279459	    -45.03634174	     35.02174124	    106.94888686	     89.53654267	    131.04752062	    -35.57593324	     45.36406172	    102.75458177	     90.99691567
      2.88333330	     -4.88094554	     -2.05208168	      0.94316120	      0.20234779	      0.87795400	     -0.04925576	     34.97534868	     -6.65912121	     -7.53243157	     46.41132142	      0.81003037	      4.34387444	    -22.21507596	     -7.49999987	     36.47838523	     -6.18849081	     -0.21391864	     52.04597305	      0.90837359	     10.92965724	     -8.71774032	     -7.49999987	    -21.52599296	      2.25792908	      2.05060705	    126.92013256	    -43.88408883	     37.20653218	    104.84482111	     89.94638195	    135.06546030	    -35.58128186	     47.98276468	    101.59023011	     91.20828801
      2.88750000	     -5.04145227	     -2.03412407	      0.97857072	      0.20425545	      0.88906005	     -0.04955534	     33.53302514	     -6.66720783	     -8.11861938	     43.75565177	      0.76368019	      2.76634157	    -21.54299046	     -7.49999987	     35.10106146	     -6.27929055	     -0.75790436	     49.44267895	      0.86293754	      9.19210082	     -8.13986002	     -7.49999987	    -20.84209672	      2.34674081	      1.54086194	    130.55040731	    -42.63623687	     39.69832925	    102.37474118	     88.35555173	    138.75103230	    -35.37327548	     50.34798265	    100.39873608	     89.16383070
      2.89166670	     -5.03632245	     -2.03457418	      1.09949571	      0.20908807	      0.89638491	     -0.05034108	     31.71066841	     -6.73191222	     -8.85034198	     40.88335541	      0.71354916	      1.36195866	    -20.01647578	     -7.49999987	     33.47551675	     -6.42481633	     -1.42780630	     46.91323446	      0.81879040	      8.15728698	     -7.25348579	     -7.49999987	    -19.99606317	      2.59448473	      0.90641419	    134.22587145	    -40.34725485	     42.66958908	     98.37421990	     87.98191162	    141.86754789	    -34.79885369	     52.81192570	     98.52469112	     88.24914507
      2.89583330	     -5.10329368	     -1.96562313	      1.26775684	      0.21179891	      0.90721733	     -0.05206816	     29.75355069	     -6.82335722	     -9.67128227	     37.66520254	      0.65738180	     -0.07429235	    -18.13274575	     -7.49999987	     31.78377186	     -6.39478465	     -2.05850477	     44.08733883	      0.76946922	      6.54502133	     -6.57448426	     -7.49999987	    -19.10595601	      2.82062868	      0.55178840	    137.57496190	    -38.50297139	     45.92729375	     95.15927817	     87.61643632	    144.26895360	    -34.61756938	     54.97369342	     97.42368182	     87.42947967
      2.90000000	     -5.22055343	     -1.88931717	      1.32567848	      0.21561335	      0.91497265	     -0.05098914	     27.90888127	     -6.84546685	    -10.45813006	     34.45132070	      0.60128898	     -1.18784380	    -16.14252964	     -7.49999987	     30.17827088	     -6.38175639	     -2.68912639	     41.35662393	      0.72180926	      5.23353101	     -5.62966550	     -7.49999987	    -17.90144632	      2.74150924	      0.20819557	    139.05992745	    -37.16155013	     47.36825400	     92.44983339	     87.84355685	    145.60011619	    -33.58807509	     55.93128202	     95.27032017	     87.53873647
